<svg xmlns="http://www.w3.org/2000/svg" viewBox="0 0 184.1 81.3"><g fill="#1f3668"><path d="M14.5 69.6c.3-.1.4-.5.4-.7 0-.1-.1-.2-.4-.2v.9zm-4.2-49.4v-.4c0-.1 0-.2-.1-.2v.4l.1 1v-.8zm4.1 47.1h16.7v.9H31c-.7 0-1.4.2-2.1.2-.2 0-.5 0-.6-.1-.4.1-.9.2-1.3.2-.7 0-1.3-.3-2-.3-.3 0-.5.1-.8.2-.1-.1-.2-.1-.4-.1-.5 0-.8.3-1.3.1-.4.1-.7.1-1.1.1h-1c-.1-.1-.2-.2-.3-.2-.2 0-.4.3-.6.1-.7.2-1.4.2-2.1.5-.1.1-.3.1-.4.1-.2 0-.2.1-.2.2.2.4.5.1.8.1 1.2 0 2.5.3 3.8.3 2.7 0 5.4-.3 8.1-.4h1.6v10.1H0v-76h10.9v.3c0 1.1-.9 2.3-.9 2.9 0 .5.1 1.1.1 1.6 0 1.1-.4 2-.4 3.1 0 2.3.5 6.6.5 9 .1 1.1.2 2.1.5 3.2-.2 3-.6 6.3-.6 9.4 0 3.2.6 1.8.6 5.1 0 2.4-.2 6-.2 8.3 0 1.9.5 3.6.3 5.5-.1.2.1.4.1.6 0 .1 0 .2-.1.2-.1 1.1-.1-.5-.1.5 0 2.3.4 3.4.4 5.7 0 1.9-.5 4.1-.5 6.1 0 1 .6 1.8.7 2.8.2 0 .6-.1.8-.1.1-.3.2-.7.2-1.1 0-.8-.4-1.8-.4-2.6 0-.2 0-.4.1-.6-.2-1.1.2-2.8.2-4 0-.3 0 .4-.2.1.2-.2.2-.4.2-.6 0-.2 0-.3-.1-.5.2-.9.3-1.7.3-2.6 0-.7-.4-4.6-.6-5 .2-.2.3 2.2.3 2 0-.3-.3-.8.2-1v-.2c0-.2-.2-.2-.2-.3 0-.3.2-.7.2-1.1 0-.7-.2-1.5.1-2.2l-.5.2.1-.2-.1-.2c0-.2 0-.2.2-.3l.3.2c.6-.5.2-1.2.6-1.7-.1-.2-.2-.5.2-.6.2.3.3.7.3 1.1 0 .4-.1.7-.1 1.1-.1.7.6 1.9.6 2.8 0 .2-.1.2-.1.4.1.8.1 1.4.1 2.1 0 2-.4 1.6-.4 3.6 0 2.7-.4 4.4-.4 7.1 0 1.3.2 2.5.4 3.8 0 0 0 .1.1.1s.1 0 .1-.1c.1-.7.6.1.6.1zm-1.2-38.5c0 .5-.1 1-.2 1.5.4 1.9 0-.6 0 1.5 0 .7.2 1.5.2 2.2 0 .2-.1.5-.2.7h-.2c-.2.1-.3-.3-.3-.6v-.4c-.6-4-.5-3.2-.6-7.2-.2-4.1-.6-10.3-.6-14.4 0-1.9.4-3.9.4-5.7 0-.5-.4-.9.2-1.2.2 0 .3.1.3.3 0 .2-.1.4.1.6.4 1 .4 2.1.7 3.2-.2.3.2.6.2.9 0 .2-.2.3-.3.4V12c0 .6.1 1.1.2 1.6-.3.8.1 1.3.1 2 0 .2 0 .4-.1.6.2.5.2 2.9.2 3.3 0 1.1-.4 2-.4 3.1 0 .6.2 1.4.3 2-.2.2-.2.6-.2 1 0 1 .2 2.1.2 3.2zm-1.3 5.8c0 .2-.1.6-.4.6h-.1c-.1 0-.1-.2-.1-.2v-.2c0-.2.2-.3.3-.3.2-.1.3 0 .3.1zm1.4 4.3c0 .2-.1.5-.2.6-.2-.2-.3-.4-.3-.6 0-.4.2-.8.2-1.2 0-.6-.4-1.2-.4-1.9 0-.2 0-.6.2-.9.4.4.5 1.1.5 1.7 0 .2 0 .6-.1.9-.3.5.1.9.1 1.4zm-1.1-.3c-.1.4 0 2.2-.2 2.6-.2 0-.4-1.2-.4-1.4 0-.3.3-.6.3-1.1l-.1-.1c.1-.1.1-.2.2-.2l.2.2zM104.3 37.2c0 .3-.1.7-.3.9-.3-.2-.4-.5-.4-.9 0-.5.2-1.1.2-1.6 0-.8-.5-1.6-.5-2.6 0-.3 0-.8.2-1.2.5.5.7 1.5.7 2.3 0 .3 0 .8-.1 1.2-.3.6.2 1.2.2 1.9zm-1.5-.4c-.1.5 0 1.5-.2 2-.2 0-.5-.1-.5-.4 0-.4.4-.9.4-1.4l-.1-.1c.1-.1.1-.2.2-.2.1-.1.1 0 .2.1zm1.2 4.1c-.2 0-.4-.2-.4-.4l.2-.3c.1.2.2.5.2.7zm-2-31.4V0h1.7c0 .5.1.9.2 1.4-.4 1.1.1 1.7.1 2.7 0 .3 0 .5-.1.8.2.7.3 1.2.3 1.7 0 1.4-.5 2.7-.5 4.1 0 .9.2 1.9.4 2.7-.2.3-.2.9-.2 1.3 0 1.4.3 5.6.3 7.1 0 .7-.1 1.3-.3 2 .5 2.6 0 .9 0 3.6 0 1 .2 2 .2 2.9 0 .3-.1.7-.2 1h-.3c-.3.1-.4-.4-.4-.8V30c-.8-5.5-.7-8.7-.8-14.1-.1-2.1-.2-4.2-.4-6.4zM116.9 0v79.1h-13.5c.1-.4 0-1 0-1.4 0-1.1-.5-2.4-.5-3.5 0-.3 0-.5.1-.9-.3-1.4.2-3.8.2-5.5 0-.4 0-1-.2-1.3.2-.2.3-.5.3-.8 0-.2 0-.4-.1-.7.3-1.2.4-2.3.4-3.5 0-1-.5-6.2-.9-6.8.2-.2.4-.5.4-.8 0-.4-.4-1.1.2-1.3v-.2c0-.2-.2-.3-.2-.4 0-.4.3-1 .3-1.5 0-1-.3-2.1.1-2.9l-.7.3-.3-.3-.1-.2c0-.2 0-.3.2-.4l.4.3c.8-.7.2-1.6.8-2.3-.1-.3-.2-.7.2-.8.3.4.4 1 .4 1.5s-.1 1-.1 1.5c-.1 1 .8 2.5.8 3.7 0 .2-.1.3-.1.5.1.9.2 1.7.2 2.6 0 2.7-.5 5.6-.5 8.3 0 3.7-.5 7.4-.5 11.1 0 1.7.3.6.5 2.4 0 0 0 .1.1.1s.1 0 .1-.1c.2-1.2.9-3.8 1.1-4.9.3-2.1.3-1.7.3-3.9 0-3.7-.2-5.5-.2-9.2 0-1.1 0-2.1.1-3.2-.3-.8-.3-1.4-.3-2.2 0-.4 0-.9.1-1.4-1-6-.2-12-.8-18.1-.8-7.2-.8-12.7-.8-19.9 0-2.9-.2-6.8.3-9.6-.3-.2-.5-.4-.5-.9 0-.7.7-1.2.3-1.9.1-.1.1-.2.1-.3 0-.3-.1-.5-.2-.6h12.5zM66.7 67c1.3-.8 2.9-2.4 4.2-3.7l-.4 1.1c.3-.3.6-.6.9-1 1.4-1.7 2.5-3.8 3.9-5.5l.7-.7 1.4-1.7c.4-1.6 2-4.9 1.1-5.5.3-1.5-1-3.4-1.7-4l-.3.5h-.3c.3-.5.3-.3.5-.8l-.7.5s.1-.9-.4-.6c.1-.3-.1-.1.1-.3.2-.2.1.1.3-.1.2-.2.4-.6.4-.8-.1-.1-.5 0-.3-.5-.3.1-.7.4-.7.3V44c-.2.2-.5.4-.6.3-.2-.2.3-1.1.1-1.3-.1-.1-.2 0-.2 0-.1.1-.6.5-.6.4-.1-.1.1-.5 0-.6l-.2.2c0-.2-.3-.6-.4-.7-.1-.1-.2 1.2-.4 1.2v.6c.1.1.3-.3.6-.7.1.1.2.6.1.7.2.2.4.8.4.9 0 0 .7-.3.8-.3 0 .3.3.6 0 1l.2-.2c.1-.1.3-.6.4-.5.1.1-.1.5-.3.7-.3.3-.1 0-.1 0l-.3.4c.1.1.5 0 .7.2.1.1 0 .6-.2.8.1.3.8.1 1.3-.1.1.1-.1.5-.2.8.5-.2-.5 1-.2.9 1.7-.7.8.6.5 1.5l.6-.3c.1.1 0 .4-.2.6.1.3.1.7 0 1.4.3-.3.1 0 .5-.3-.3 1.3.6 1.2-.7 3.2.2.8-2.7 3.6-3.1 4.9 0 0 .3-.3.4-.2v.2l-.4.5c-.4.5-.6 1-1 1.4-1.8 1.5-3.6 3.2-5.5 4.8l-.7.6zm-2.5-41.9c7.6-.3 14.2 2.2 19.7 7.5s8.4 11.8 8.7 19.6c.3 7.9-2.2 14.6-7.4 20.3-5.2 5.6-11.7 8.5-19.5 8.8-7.9.3-14.6-2.2-20.1-7.5-5.5-5.3-8.4-11.9-8.6-19.9-.3-7.9 2.2-14.6 7.4-20.1 5.2-5.5 11.8-8.4 19.8-8.7zm16.1 20c-.1-.1-.5-.2-.6-.1-.2.2-.3.5-.4.8.4-.3.6-.2 1-.7zm-.7-.7l-.2-.2c-.2.1-.3.3-.4.3l-.2.2c.2-.3.3-.5.4-.7l-.1-.1c-.3.2-.6.3-.2-.2 0 0-.8.5-1 .3-.2-.2-.1-.7-.2-.8 0-.1.2-.2.2-.4l-.2-.1c-.3.3-.7.6-.8.5v-.6c.1 0 .2-.1.4-.2l-.2-.1v.1c-.6.5-.3-.1-1 .4.1-.5-.6-.5-.5-1.1l.4-.4s-.2 0-.2.1c-2.1-.8-4.2-1.6-5.8-3-.4-.4-.4-.3-.6-.9l-.6-.6c-.2.2-.4.4-.5.3V37l-.4-.1.2-.3-.2-.1c-.2.2-.3 0-.4-.1-.2.2-.4.2-.5.2l-.5-.8c-1.2.3-.5-.7-1.8-.3 0-.2-.5-.2-.6-.3-.1-.1-.2-.2-.1-.3-.2 0-.4.2-.5.1v-.3l-.5.1-.3.3c-.5.6-.4-.3-.3-.2l.3-.4c-.3.3-.4 0-.5 0-.2-.2-.7.5-.9.7-.1-.1-.3-.1-.2-.2l.1-.1c-1.2.6-2.4 1.5-3.4 2.3v-.3c-.7.7-1.7 1.2-2.3 2l-.3.3c-1.2 2.1-5.4 7.3-5.3 8.8-.7 2-.7 3.5-.8 5-.1.9.9.5 0 2.2-.1.1-.4.4-.5.3-.1-.1.1-.5-.1-.6-.2-.2-.3-.5-.5-.7 0 0-.1-.1-.2 0 0 .2.6 3.2.8 3.2l.1.1.2-.4-.3.1c.1-.3.3-.7.5-.9.3.1.7 0 .8.2.2.2.1.7 0 1l.3-.1c.5.5.3 1.6.7 2.2.6.7 1 1.5 1.2 2.5.5.1.5.6.9.8l.2.2c-.4 1.1.7.6.5 1.3.5-.1.2.8.4 1 .2.2.8-.3.2.6 0 0 .4-.2.5-.4-.2.4.1.5.4.4 0 0-.2.4-.3.5.3-.1.3.1.2.4l.4-.2c-.1.5.6.5.2 1.2.1-.1.2-.2.3-.1.1.1-.6 1.2-.2 1.2 0 .4.6-.1.9-.5l.1-.1c.1.1-.1.5 0 .6l-.5.6 1.9.4-.1.3c0 .2-.2.4-.3.5l-.5.5c-.4 0-.5-.4-1.3.2.6.6 1.4.7 2.8-.2 1.2-.1 2.2-.2 3.3-.3 1.3-.2 1.3 1 3 0-.1.9 2-1 2.3-.6 1.2-.9 1.9-.8 3.2-2-.6.1-1.9 1.2-2.2.9-.1-.1 0-.2 0-.4-.2.2-.8.7-.9.6l.4-.7c.3-.3.6-.5.7-.3.7-1.1.7-.5 1.1-1l.2-.2-.6.4.2-.3c.6-.6 1.4-1.3 2-2-.3.2-.6.4-.8.6l.3-.7c1.9-1.6 3.7-3.3 5.5-4.8.4-.5.6-1 1-1.5l.4-.4c.1-.1.1-.1 0-.2 0 0-.3.3-.4.2.4-1.3 3.3-4.1 3.1-4.9 1.3-2 .4-1.8.7-3.2-.3.3-.7 0-.8-.4.2-.2.3-.5.2-.6l-.5-.2c.3-.9-.3-.5.5-1.4.1-.1.4-.6.4-.7 0 0-.8.7-.9.5-.2-.2.6-1.2.1-1 .1-.3.4-.7.2-.8-.5.2-.9.9-1 .7.1-.3.1-.5-.1-.7.1.1-.3.2-.4.1l-.1-.4-.3.1c.1-.3.5-.6.7-.9.2-.1.3-.2.3-.4zm-30 18.1c.3-.5.2-1 0-1.2-.2-.2-.4-.2-.6-.4.1.7.5 1.1.6 1.6zm11.3-28s.6-.5.7-.6c.1-.1.2-.4.1-.5 0 0-.3.1-.4.2-.1.2-.5.9-.4.9zm-6.1 36.7c.3.3.8.2 1.1.3l.1-.5c-.3.3-.7.4-.8.3-.1-.1-.2-.8-.6-.5.1.1.1.3.2.4zm-1.7-1c.3.3.9.2 1.2.6-.3-.5-.4-1-.8-1.4l-.2-.2c-.1-.1-.3-.1-.5-.2 0 .2 0 .4.1.4l.1.1c-.1.3-.1.5.1.7zm-.6-1.5l.1.1c0-.2.3-.5.2-.6 0 0-.2 0-.3.1-.1.2 0 .3 0 .4zm-.5-.3s.1.1.2 0c.1-.3.4-.7.2-.8-.1-.1-.3 0-.5.1.2 0 0 .6.1.7zm-.5-1.3l.2.2c-.1-.5 0-1.4-.4-1.6l-.3-.2c.1.6.2 1.3.5 1.6zm-.6-1.8l-.5-1.5c-.1.6.1 1.2.5 1.5zm-.9-2.4c-.1-.1-.2-.1-.3-.1l-.1-.3c-.1.2 0 .3.1.3l.2.6c.1-.1.2-.4.1-.5zm-.8-2.6L49 60v-.1c.3-.7.2-1.3 0-1.6-.1-.1-.2-.2-.3-.1-.5.9.1 1.1.2 1.6.1 0 .1 0 .2.1v.1c0 .2-.2.4-.1.5-.1 0 .1-.1.2-.2zM47.7 54c.6-1.2-.2-1 0-1.8-.5.4 0-.8-.1-.9 0 0-.2 0-.3.1l.4 2.6zm1.3 7c.2.2.4.2.6.4.2.2.3.7 0 1.2l.1.3c.1 0 .2 0 .3.1.1.1 0 .4-.1.5l-.2-.6c-.1 0-.2-.1-.1-.3-.1-.6-.5-1-.6-1.6z" fill-rule="evenodd" clip-rule="evenodd"/><path d="M180.9 37.4V37c0-.1 0-.3-.1-.3v.5l.1 1v-.8zm-15.3-.8c0 .1.4.1.5.1.1 0 .3-.1.3-.3 0-.1-.2-.1-.2-.2-.1 0-.6.3-.6.4zm-17 7.2c.1.1.3.1.5.1s.5-.1.5-.3c0-.2-.2-.2-.3-.2-.2.1-.7.1-.7.4zm2.3-2.7c.9-.4.5-1 1-1.5-.3-.1.4-.6.5-.8 0-.1-.1-.1-.2-.1l-1.3 2.4zm-3.5 6.5l.1-.4c.5-.4.8-.9.9-1.4v-.4c-.7.3-.6 1-.8 1.5v.3c-.1.1-.7.2-.8.3 0 .1.5.1.6.1zm-2.2 5.7l.7-1.7c-.4.5-.6 1.1-.7 1.7zm-.8 2.1v.3c.2-.6.8-1.2.7-1.7v-.4c-.3.6-.6 1.2-.7 1.8zm-.5 1.5c0 .1 0 .2.1.1.2-.1.5-.2.5-.5 0-.1-.1-.3-.2-.4 0 .2-.4.6-.4.8zm0 .7v.2c.1-.1.4-.2.4-.4 0-.1-.1-.1-.2-.2-.2.1-.2.3-.2.4zm-.7 1.7c-.1.6.1 1 .1 1.5.2-.6.4-1.2.5-1.9v-.3-.6c-.1.2-.2.3-.2.4v.2c-.3.3-.4.4-.4.7zm0 2.4c-.1.5.2.8.2 1.2l.3-.4c-.3 0-.4-.3-.4-.5s.4-.8.1-.9c-.1.2-.2.4-.2.6zm3.9 1.2c.5.2.3.6.4.9.2.1.3 0 .4 0 .1 0 .3 0 .4-.1l-.2-2.1h.4c0-.2.3-.3.3-.5-.4 0-.9-.1-.7-.5-.1-.3.7-.6.7-.8.3-.4.1-1 .4-1.4l-.2-.2c.2-.1.3-.4.1-.5.1 0 .4-.1.4-.2-.2-.1-.2-.4.1-.6-.1 0-.4 0-.3-.1.7-.2.2-.4.3-.7 0-.4.6-.9.4-1.2.4-.4-.2-.9.5-1.5v-.3c0-.5.3-1 .2-1.5.5-1.1.8-2 1-3.2.2-.9.9-1.6 1-2.5.1-.5.4-.7.4-1.1 0-.3-.1-.6-.2-.9-.2 0-.5.1-.7.3l-.1.3v-.2c-.1-.2 1.4-3.2 1.5-3.4.1.1.1.1.1.2 0 .4-.2.7-.2 1 0 .2-.3.4-.3.6 0 .2.3.1.3.2 1.2-.6.7-1.1 1.2-1.8.7-2.3 4.6-3.8 2.9-3.2-.3.4-2.4.2-2.5.6-.6.2-.6.5-1.1.7-.4.7-1 1.3-1.3 2l-2.9 6.5c.1.1.1.3.1.4-.1.9-1.5 2.1-1.6 3.2-.1.5-1.4 7.1-1.4 10.6.1.1.1.3 0 .5.3.2.2.3.2.5zm.8 2.2c-.8-.4-1-1.1-1-1.9 0 .1-.1.2-.1.4s0 .5.1.6c-.1.2-.2.3-.2.5-.1.8.5.8 0 1.7.2 1.5.6 2.8 1.7 3.7.2 0 .8 0 .8.1-.2.2-.3.4-.3.5 0 .1.2.2.2.3 0 .2.9.2.8.5.2 0 .4-.1.6-.2-.4-.2-.7-.5-.5-.9-1.1-.7-.4-1.7-.9-2.7l-1.2-2.6zm18.5-3.6s-.2-.4-.3-.5h-.1c.2 0 .4-.1.5-.2v-.2h-.8l-.1-.1c0-.1.5-.1.9-.2v-.1c-.3-.1-.6-.2-.5-.5 0-.3.3-.6.4-.9 0 0 .2 0 .3-.1v-.3c-.2 0-.5-.1-.5-.3l.3-.4c0 .1.1.1.2.1v-.3c.1-.1.3-.1.3-.2s-.2-.2 0-.4c-.1 0-.2-.1-.2-.2v-.1c.1-.2.4-.4.4-.7 0-.1-.2-.2-.4-.2v-.2c.8-.8.1-1.4.6-2.1-.2-.1-.2-.4-.2-.5 0-.4.3-.7.3-1.1.1-1-.5-2.6-.2-4.2l.1-1c.3-.3-.3-.3-.3-.6 0-.1.2-.1.3-.2l-.5.1v-.2h.1v-.4c.2-.2.3-.4.3-.6 0-.3 0-.5-.2-.8-.1 0-.3-.3-.3-.4 0-.4.5-.8.6-1.2 0-.2 0-.2-.1-.3-.1-.1-.2-.2-.2-.4s.2-.4.3-.7c0-.2-.2-.4-.5-.4.5-.7-.2-1.3 0-2v-.2c-.8 0-.5-.8-1.3-.7-.7-.5-1.5-.9-2.2-1.1h-.2c-1 .4-1.6.1-2.8.5-.3.4-1.7 1.4-1.8 1.8-.6.2-.6.5-1.1.7-.4.7-1.4.8-1.8 1.6l-3.3 6.5c.1.1.1.3.1.4-.1.9-.7 1.9-.8 2.9-.1.5-2 10.4-2.2 10.8.1.1.1.3 0 .5 0 .4-.3.7-.3 1.1 0 .2 0 .5.1.6-.1.2-.2.3-.2.5-.1.8.9.8.3 1.7.2 1.5.6 2.8 1.7 3.7.2 0 .8 0 .8.1-.2.2-.3.4-.3.5 0 .1.2.2.2.3 0 .2.9.2.8.5.3 0 .5-.1.7-.2l-.6.4.2.1c1 .2 2.4.8 3.4 1 .4-.1.7-.3 1.1-.4v.1l.4-.1c.1 0 .1 0 .1-.1s-.3 0-.3-.1c.8-.7 3.3-.5 3.6-1.4 1.5-.5 1.1-1.2 1.9-2.1-.3 0-.5.1-.8.1.4-.4.6-.7.8-1.1.2 0 .4-.1.4-.3l-.3-.3c.6-.5-.2-.8 1.2-1.1.1 0 .5-.1.5-.2s-1.1 0-1-.3c0-.4 1.3-.6 1.1-.8.2-.1.5-.2.5-.5-.2-.3-1-.1-.8-.4.2-.1.5-.3.5-.5 0-.3-.1-.5-.1-.8l.2-.4-.2-.1c.2-.1.5-.1.7-.1.4 0 .5 0 .6-.1zm3.7-35h10.7v.3c0 1.1-.4 2.1-.4 3.3 0 2.4.6 4.9.5 7.4.1 1.2.2 2.2.6 3.4-.3 3.2-.6 6.7-.6 10 0 3.4.6 7 .6 10.5 0 2.6-.2 5.1-.2 7.6 0 2 .5 3.9.3 5.8-.1.2.1.4.1.6 0 .1 0 .2-.1.2-.1 1.1-.1 2.2-.1 3.3v.3H170v-5.5c-5 4.7-10.4 7-16.2 7-7.3 0-13.3-2.6-18.1-7.9-4.7-5.4-7.1-12.1-7.1-20.1 0-7.9 2.4-14.5 7.1-19.7 4.7-5.3 10.6-7.9 17.7-7.9 6.1 0 11.6 2.5 16.5 7.6v-6.2zM183 63.3c0 .2-.1.3-.3.4-.2-.2-.3-.5-.3-.7 0-.4.2-.8.3-1.3 0-.6-.3-1.3-.3-2.1 0-.3 0-.6.2-.9.4.5.4 1.2.4 1.8 0 .3 0 .6-.2.9-.2.4.1.8.1 1.3v.3c.1.1.1.2.1.3zm1.1-1.2v0zm-2.2-35.6h1.1c.1.5.2 1 .3 1.4-.3.3.2.6.2.9 0 .2-.2.3-.3.4v1.6c0 .6.1 1.1.2 1.7-.3.9.1 1.4.1 2.1 0 .3 0 .4-.1.6.2.5.3.9.3 1.4 0 1.1-.4 2.1-.4 3.3 0 .7.2 1.5.3 2.1-.2.3-.2.7-.2 1 0 1.1.3 2.2.3 3.4 0 .5-.1 1-.3 1.5.4 2.1 0 4.5 0 6.6 0 .8.2 1.5.2 2.3 0 .3-.1.5-.2.8h-.3c-.3.1-.3-.3-.3-.6v-.4c-.6-4.3-.5-8.4-.6-12.7-.2-4.4-.6-8.8-.6-13.1-.1-1.3.2-2.8.3-4.3z"/></g></svg>